Coordinates
version=1
nRows=32
nColumns=12
inDegrees=yes

Units are S.I. units (second, meters, Newtons, ...)
Angles are in degrees

endheader
time	SC_y	SC_z	SC_x	AC_y	AC_z	AC_x	GH_y	GH_z	GH_yy	EL_x	PS_y
       0.0              -28.28         -2.577          45.41          50.45         0.5743          13.58         -20.83          4.874          19.87          101.8           48.0
  0.002495              -28.27         -2.575          45.42          50.45         0.5755          13.58         -20.84          4.885          19.87          101.8           48.0
  0.004991              -28.27         -2.573          45.42          50.45         0.5769          13.58         -20.84          4.897          19.88          101.8           48.0
  0.007486              -28.27         -2.571          45.43          50.45         0.5783          13.58         -20.84           4.91          19.88          101.8           48.0
  0.009982              -28.27         -2.569          45.43          50.45         0.5798          13.58         -20.85          4.923          19.89          101.8           48.0
   0.01248              -28.26         -2.567          45.44          50.45         0.5814          13.58         -20.85          4.938          19.89          101.8          47.99
   0.01497              -28.26         -2.564          45.45          50.46         0.5831          13.57         -20.86          4.953           19.9          101.8          47.99
   0.01747              -28.26         -2.561          45.46          50.46         0.5849          13.57         -20.87          4.969          19.91          101.8          47.99
   0.01996              -28.26         -2.559          45.46          50.46         0.5868          13.57         -20.87          4.987          19.92          101.8          47.99
   0.02246              -28.25         -2.556          45.47          50.46         0.5889          13.57         -20.88          5.006          19.92          101.8          47.99
   0.02495              -28.25         -2.552          45.48          50.46         0.5912          13.57         -20.89          5.026          19.93          101.8          47.99
   0.02745              -28.24         -2.549          45.49          50.46         0.5936          13.57          -20.9          5.048          19.94          101.8          47.98
   0.02995              -28.24         -2.545           45.5          50.47         0.5962          13.57          -20.9          5.071          19.95          101.8          47.98
   0.03244              -28.24         -2.541          45.51          50.47          0.599          13.57         -20.91          5.097          19.96          101.9          47.98
   0.03494              -28.23         -2.536          45.53          50.47         0.6021          13.57         -20.92          5.124          19.98          101.9          47.98
   0.03743              -28.23         -2.532          45.54          50.47         0.6054          13.57         -20.93          5.154          19.99          101.9          47.97
   0.03993              -28.22         -2.526          45.55          50.48          0.609          13.57         -20.95          5.186           20.0          101.9          47.97
   0.04242              -28.21         -2.521          45.57          50.48         0.6129          13.56         -20.96          5.221          20.02          101.9          47.97
   0.04492              -28.21         -2.514          45.59          50.48         0.6172          13.56         -20.97           5.26          20.03          101.9          47.96
   0.04741               -28.2         -2.508          45.61          50.49         0.6219          13.56         -20.99          5.302          20.05          101.9          47.96
   0.04991              -28.19           -2.5          45.63          50.49          0.627          13.56         -21.01          5.348          20.07          101.9          47.96
    0.0524              -28.18         -2.492          45.65          50.49         0.6327          13.56         -21.03          5.399          20.09          101.9          47.95
    0.0549              -28.17         -2.483          45.68           50.5          0.639          13.55         -21.05          5.455          20.12          102.0          47.95
    0.0574              -28.16         -2.473          45.71           50.5         0.6459          13.55         -21.07          5.517          20.15          102.0          47.94
   0.05989              -28.15         -2.462          45.74          50.51         0.6536          13.55         -21.09          5.586          20.18          102.0          47.93
   0.06239              -28.13         -2.449          45.77          50.52         0.6622          13.55         -21.12          5.664          20.21          102.0          47.93
   0.06488              -28.12         -2.435          45.81          50.52         0.6718          13.54         -21.16           5.75          20.25          102.1          47.92
   0.06738               -28.1         -2.419          45.86          50.53         0.6827          13.54         -21.19          5.848          20.29          102.1          47.91
   0.06987              -28.08         -2.402          45.91          50.54         0.6949          13.53         -21.23          5.957          20.34          102.1           47.9
   0.07237              -28.06         -2.382          45.96          50.55         0.7088          13.53         -21.28          6.082          20.39          102.2          47.89
   0.07486              -28.03         -2.358          46.03          50.57         0.7247          13.52         -21.33          6.225          20.45          102.2          47.88
   0.07736               -28.0         -2.332           46.1          50.58         0.7429          13.52         -21.39          6.388          20.52          102.3          47.86
